<mxfile host="8984c74c-396e-46bd-82f8-b094928e3381" modified="2020-08-25T09:21:40.354Z" agent="5.0 (Macintosh; Intel Mac OS X 10_15_5) AppleWebKit/537.36 (KHTML, like Gecko) Code/1.48.0 Chrome/78.0.3904.130 Electron/7.3.2 Safari/537.36" etag="4WOYwsbxTbapN1eskOUg" version="13.1.3" pages="2">
    <diagram id="6hGFLwfOUW9BJ-s0fimq" name="Page-1">
        <mxGraphModel dx="1738" dy="352" grid="1" gridSize="10" guides="1" tooltips="1" connect="1" arrows="1" fold="1" page="1" pageScale="1" pageWidth="827" pageHeight="1169" math="0" shadow="0">
            <root>
                <mxCell id="0"/>
                <mxCell id="1" parent="0"/>
                <mxCell id="12" value="" style="edgeStyle=orthogonalEdgeStyle;rounded=0;orthogonalLoop=1;jettySize=auto;html=1;" edge="1" parent="1" source="2" target="11">
                    <mxGeometry relative="1" as="geometry"/>
                </mxCell>
                <mxCell id="2" value="" style="rounded=0;whiteSpace=wrap;html=1;" vertex="1" parent="1">
                    <mxGeometry x="50" y="90" width="230" height="140" as="geometry"/>
                </mxCell>
                <mxCell id="11" value="Working Usable App by keeping data and view in ndifferent buckets for the application which come together for working usable&amp;nbsp; app" style="rounded=0;whiteSpace=wrap;html=1;" vertex="1" parent="1">
                    <mxGeometry x="240" y="380" width="230" height="140" as="geometry"/>
                </mxCell>
                <mxCell id="3" value="Redux is predictable state container for JS Applications" style="text;html=1;strokeColor=none;fillColor=none;align=center;verticalAlign=middle;whiteSpace=wrap;rounded=0;" vertex="1" parent="1">
                    <mxGeometry x="200" y="10" width="250" height="20" as="geometry"/>
                </mxCell>
                <mxCell id="5" value="List of Books" style="rounded=0;whiteSpace=wrap;html=1;" vertex="1" parent="1">
                    <mxGeometry x="90" y="110" width="150" height="30" as="geometry"/>
                </mxCell>
                <mxCell id="6" value="Currently Selected Book" style="rounded=0;whiteSpace=wrap;html=1;" vertex="1" parent="1">
                    <mxGeometry x="90" y="170" width="150" height="30" as="geometry"/>
                </mxCell>
                <mxCell id="13" style="edgeStyle=orthogonalEdgeStyle;rounded=0;orthogonalLoop=1;jettySize=auto;html=1;" edge="1" parent="1" source="7" target="11">
                    <mxGeometry relative="1" as="geometry"/>
                </mxCell>
                <mxCell id="7" value="" style="rounded=0;whiteSpace=wrap;html=1;" vertex="1" parent="1">
                    <mxGeometry x="380" y="90" width="250" height="140" as="geometry"/>
                </mxCell>
                <mxCell id="8" value="ListView" style="rounded=0;whiteSpace=wrap;html=1;" vertex="1" parent="1">
                    <mxGeometry x="390" y="110" width="110" height="40" as="geometry"/>
                </mxCell>
                <mxCell id="9" value="DetailView" style="rounded=0;whiteSpace=wrap;html=1;" vertex="1" parent="1">
                    <mxGeometry x="510" y="150" width="110" height="40" as="geometry"/>
                </mxCell>
                <mxCell id="10" value="ListItem" style="rounded=0;whiteSpace=wrap;html=1;" vertex="1" parent="1">
                    <mxGeometry x="390" y="180" width="110" height="40" as="geometry"/>
                </mxCell>
                <mxCell id="14" value="Data contained in the application" style="text;html=1;align=center;verticalAlign=middle;resizable=0;points=[];autosize=1;" vertex="1" parent="1">
                    <mxGeometry x="68" y="57" width="190" height="20" as="geometry"/>
                </mxCell>
                <mxCell id="15" value="View Contained in the Application" style="text;html=1;align=center;verticalAlign=middle;resizable=0;points=[];autosize=1;" vertex="1" parent="1">
                    <mxGeometry x="396" y="57" width="190" height="20" as="geometry"/>
                </mxCell>
                <mxCell id="16" value="React" style="text;html=1;align=center;verticalAlign=middle;resizable=0;points=[];autosize=1;fillColor=#FF3895;" vertex="1" parent="1">
                    <mxGeometry x="466" y="37" width="50" height="20" as="geometry"/>
                </mxCell>
                <mxCell id="17" value="Redux" style="text;html=1;align=center;verticalAlign=middle;resizable=0;points=[];autosize=1;fillColor=#66FFB3;" vertex="1" parent="1">
                    <mxGeometry x="135" y="37" width="50" height="20" as="geometry"/>
                </mxCell>
                <mxCell id="20" value="" style="edgeStyle=orthogonalEdgeStyle;rounded=0;orthogonalLoop=1;jettySize=auto;html=1;" edge="1" parent="1" source="18" target="19">
                    <mxGeometry relative="1" as="geometry">
                        <Array as="points">
                            <mxPoint x="179" y="772"/>
                            <mxPoint x="40" y="772"/>
                        </Array>
                    </mxGeometry>
                </mxCell>
                <mxCell id="21" style="edgeStyle=orthogonalEdgeStyle;rounded=0;orthogonalLoop=1;jettySize=auto;html=1;" edge="1" parent="1" source="18">
                    <mxGeometry relative="1" as="geometry">
                        <mxPoint x="310" y="810" as="targetPoint"/>
                    </mxGeometry>
                </mxCell>
                <mxCell id="18" value="Redux:Collection of all data that descibes the app&amp;nbsp;" style="text;html=1;align=center;verticalAlign=middle;resizable=0;points=[];autosize=1;" vertex="1" parent="1">
                    <mxGeometry x="39" y="714" width="280" height="20" as="geometry"/>
                </mxCell>
                <mxCell id="19" value="HardData(list of Books)&amp;nbsp;" style="text;html=1;align=center;verticalAlign=middle;resizable=0;points=[];autosize=1;" vertex="1" parent="1">
                    <mxGeometry x="-30" y="810" width="140" height="20" as="geometry"/>
                </mxCell>
                <mxCell id="22" value="Meta Level Properties like currently selected Book" style="text;html=1;align=center;verticalAlign=middle;resizable=0;points=[];autosize=1;" vertex="1" parent="1">
                    <mxGeometry x="170" y="810" width="280" height="20" as="geometry"/>
                </mxCell>
                <mxCell id="23" value="React:Represents Views which translates &lt;br&gt;app's data into something that can be &lt;br&gt;displayed on screen and can be interacted by user" style="text;html=1;align=center;verticalAlign=middle;resizable=0;points=[];autosize=1;" vertex="1" parent="1">
                    <mxGeometry x="39" y="920" width="280" height="50" as="geometry"/>
                </mxCell>
                <mxCell id="26" value="" style="edgeStyle=orthogonalEdgeStyle;rounded=0;orthogonalLoop=1;jettySize=auto;html=1;" edge="1" parent="1" source="24" target="25">
                    <mxGeometry relative="1" as="geometry"/>
                </mxCell>
                <mxCell id="30" value="" style="edgeStyle=orthogonalEdgeStyle;rounded=0;orthogonalLoop=1;jettySize=auto;html=1;" edge="1" parent="1" source="24" target="29">
                    <mxGeometry relative="1" as="geometry"/>
                </mxCell>
                <mxCell id="24" value="We centralise all the application's data into single object" style="text;html=1;align=center;verticalAlign=middle;resizable=0;points=[];autosize=1;" vertex="1" parent="1">
                    <mxGeometry x="24" y="585" width="310" height="20" as="geometry"/>
                </mxCell>
                <mxCell id="29" value="Redux" style="text;html=1;align=center;verticalAlign=middle;resizable=0;points=[];autosize=1;" vertex="1" parent="1">
                    <mxGeometry x="154" y="530" width="50" height="20" as="geometry"/>
                </mxCell>
                <mxCell id="28" value="" style="edgeStyle=orthogonalEdgeStyle;rounded=0;orthogonalLoop=1;jettySize=auto;html=1;" edge="1" parent="1" source="25" target="27">
                    <mxGeometry relative="1" as="geometry"/>
                </mxCell>
                <mxCell id="25" value="State" style="text;html=1;align=center;verticalAlign=middle;resizable=0;points=[];autosize=1;" vertex="1" parent="1">
                    <mxGeometry x="159" y="650" width="40" height="20" as="geometry"/>
                </mxCell>
                <mxCell id="27" value="Application level State" style="text;html=1;align=center;verticalAlign=middle;resizable=0;points=[];autosize=1;" vertex="1" parent="1">
                    <mxGeometry x="234" y="650" width="130" height="20" as="geometry"/>
                </mxCell>
            </root>
        </mxGraphModel>
    </diagram>
    <diagram id="NP9WvvupTxTRhnb0jzpX" name="Page-2">
        <mxGraphModel dx="911" dy="352" grid="1" gridSize="10" guides="1" tooltips="1" connect="1" arrows="1" fold="1" page="1" pageScale="1" pageWidth="1800" pageHeight="1800" math="0" shadow="0">
            <root>
                <mxCell id="XOVmIbaljfI-oKzIRHdn-0"/>
                <mxCell id="XOVmIbaljfI-oKzIRHdn-1" parent="XOVmIbaljfI-oKzIRHdn-0"/>
            </root>
        </mxGraphModel>
    </diagram>
</mxfile>